<?xml version="1.0" standalone="no"?>
<!DOCTYPE svg PUBLIC "-//W3C//DTD SVG 20010904//EN"
 "http://www.w3.org/TR/2001/REC-SVG-20010904/DTD/svg10.dtd">
<svg version="1.0" xmlns="http://www.w3.org/2000/svg"
 width="512.000000pt" height="512.000000pt" viewBox="0 0 512.000000 512.000000"
 preserveAspectRatio="xMidYMid meet">
<metadata>
Created by potrace 1.14, written by Peter Selinger 2001-2017
</metadata>
<g transform="translate(0.000000,512.000000) scale(0.100000,-0.100000)"
fill="#000000" stroke="none">
<path d="M742 4909 c-158 -31 -291 -166 -322 -327 -5 -29 -9 -172 -8 -319 l1
-268 -43 -80 c-46 -87 -100 -188 -164 -305 -23 -41 -50 -93 -61 -115 -11 -22
-26 -46 -33 -53 -6 -7 -12 -17 -12 -22 0 -5 -14 -32 -30 -60 -108 -182 -86
-393 57 -555 57 -64 156 -125 237 -146 l46 -11 0 -1042 c0 -836 3 -1051 14
-1091 33 -124 114 -222 229 -276 l72 -34 1835 0 1835 0 77 39 c82 40 137 91
181 167 56 96 55 76 56 1100 0 519 0 987 1 1040 l0 97 48 12 c124 31 248 134
307 255 44 88 55 140 51 237 -2 71 -7 87 -54 180 -53 105 -123 237 -170 318
-14 25 -25 46 -25 47 1 1 -34 66 -78 145 l-79 143 0 115 c-1 63 -1 188 -2 277
0 89 -4 183 -9 209 -14 76 -54 151 -112 208 -63 64 -130 100 -211 115 -72 13
-3567 13 -3634 0z"/>
</g>
</svg>
